<!-- icon666.com - MILLIONS vector ICONS FREE --><svg id="Layer_1" viewBox="0 0 512 512" xmlns="http://www.w3.org/2000/svg" data-name="Layer 1"><g fill="rgb(0,0,0)"><path d="m302.63 191h-163.57a8 8 0 0 0 0 16.07h163.57a8 8 0 0 0 0-16.07z"></path><path d="m302.63 231.43h-163.57a8 8 0 0 0 0 16.07h163.57a8 8 0 0 0 0-16.07z"></path><path d="m310.66 279.89a8 8 0 0 0 -8-8h-163.6a8 8 0 0 0 0 16.07h163.57a8 8 0 0 0 8.03-8.07z"></path><path d="m310.52 90.18v-22.4h-.17a13.44 13.44 0 0 0 -13.44-13.15h-2a16.94 16.94 0 0 0 -2.79-.23h-40.8a35.46 35.46 0 1 0 -59.78 0h-42.26a17.28 17.28 0 0 0 -2.78.23h-2a13.44 13.44 0 0 0 -13.44 13.15h-.06v40.22h179.52zm-89.13-39.09a15.63 15.63 0 1 1 15.61-15.63 15.64 15.64 0 0 1 -15.61 15.63z"></path><path d="m305.86 313a7.93 7.93 0 0 0 -3.23-.7h-163.57a8 8 0 0 0 0 16.07h143a113.33 113.33 0 0 1 23.8-15.37z"></path><path d="m206.8 360.73a8.05 8.05 0 0 0 8 8h36.88a113 113 0 0 1 8.78-16.07h-45.63a8 8 0 0 0 -8.03 8.07z"></path><path d="m77.73 449.86v-359.68h37v-17.38h-55v395h195.27a113.76 113.76 0 0 1 -7.62-18z"></path><path d="m365.18 302a112.63 112.63 0 0 1 18 3.15v-232.28h-56.47v17.31h38.47z"></path><path d="m355.14 317.72a97.14 97.14 0 1 0 97.14 97.14 97.15 97.15 0 0 0 -97.14-97.14zm51.93 68.35c-16.4 14.45-19.53 17.34-34.24 34.64-4.33 5.13-7.94 11-11.77 17.13l-1 1.57c-3.32 5.32-6.49 10.8-9.42 16.29a3.25 3.25 0 0 1 -2.63 1.73h-.25a3.38 3.38 0 0 1 -2.64-1.33 221.94 221.94 0 0 0 -16.36-19.59 229.32 229.32 0 0 0 -25.45-23.38 3.17 3.17 0 0 1 -1.24-2.19 3.23 3.23 0 0 1 .7-2.41c1.92-2.43 9.12-8.75 15.4-10a3.09 3.09 0 0 1 .68-.09 3.16 3.16 0 0 1 1.77.55 267.44 267.44 0 0 1 25 19 145.65 145.65 0 0 1 11.83-11c15.37-12.6 29.2-21.92 46.61-26.5a3.19 3.19 0 0 1 .86-.12 3.28 3.28 0 0 1 2.14 5.76z"></path></g></svg>